<svg xmlns="http://www.w3.org/2000/svg" width="24" height="24" viewBox="0 0 24 24">
  <g id="Group_94513" data-name="Group 94513" transform="translate(0 0.555)">
    <rect id="Rectangle_155530" data-name="Rectangle 155530" width="24" height="24" transform="translate(0 -0.554)" fill="none"/>
    <g id="Group_94516" data-name="Group 94516" transform="translate(0 -0.555)">
      <path id="Path_231142" data-name="Path 231142" d="M0,0H24V24H0Z" fill="none"/>
      <path id="call_24dp_5F6368_FILL0_wght400_GRAD0_opsz24" d="M136.95-822a15.011,15.011,0,0,1-6.175-1.362,18.473,18.473,0,0,1-5.55-3.863,18.474,18.474,0,0,1-3.863-5.55A15.011,15.011,0,0,1,120-838.95a1.018,1.018,0,0,1,.3-.75,1.017,1.017,0,0,1,.75-.3h4.05a.93.93,0,0,1,.625.237.914.914,0,0,1,.325.562l.65,3.5a1.764,1.764,0,0,1-.025.675,1.051,1.051,0,0,1-.275.475l-2.425,2.45a12.09,12.09,0,0,0,1.188,1.787,17.574,17.574,0,0,0,1.512,1.662,17.586,17.586,0,0,0,1.625,1.438A15.8,15.8,0,0,0,130.1-826l2.35-2.35a1.4,1.4,0,0,1,.588-.338,1.61,1.61,0,0,1,.713-.062l3.45.7a1.158,1.158,0,0,1,.575.363.88.88,0,0,1,.225.588v4.05a1.017,1.017,0,0,1-.3.75A1.017,1.017,0,0,1,136.95-822Zm-13.925-12,1.65-1.65L124.25-838h-2.225q.125,1.025.35,2.025A10.956,10.956,0,0,0,123.025-834Zm8.95,8.95a12.405,12.405,0,0,0,1.988.675,12.19,12.19,0,0,0,2.037.325v-2.2l-2.35-.475ZM123.025-834ZM131.975-825.05Z" transform="translate(-117 843)" fill="#212529"/>
    </g>
  </g>
</svg>
