<svg xmlns="http://www.w3.org/2000/svg" width="24" height="24" viewBox="0 0 24 24">
  <g id="Group_84230" data-name="Group 84230" transform="translate(0 0.554)">
    <rect id="Rectangle_155530" data-name="Rectangle 155530" width="24" height="24" transform="translate(0 -0.554)" fill="none"/>
    <g id="Group_84232" data-name="Group 84232" transform="translate(-0.082 -1.748)">
      <path id="Path_213346" data-name="Path 213346" d="M11.543,23.688A10.845,10.845,0,0,1,11.543,2a10.784,10.784,0,0,1,10.7,10.844.856.856,0,1,1-1.712,0,9.058,9.058,0,0,0-8.987-9.109,9.11,9.11,0,0,0,0,18.218A8.99,8.99,0,0,0,19.326,17.4a.85.85,0,0,1,1.169-.318.874.874,0,0,1,.313,1.185A10.7,10.7,0,0,1,11.543,23.688Z" transform="translate(0 0)" fill="#212529"/>
      <path id="Path_213347" data-name="Path 213347" d="M15.267,12.585H10.749a.866.866,0,0,1-.9-.823V8.881A3.035,3.035,0,0,1,13.008,6a3.035,3.035,0,0,1,3.163,2.881v2.881A.866.866,0,0,1,15.267,12.585Zm-3.615-1.646h2.711V8.881a1.362,1.362,0,0,0-2.711,0Z" transform="translate(-1.21 -0.261)" fill="#212529"/>
      <path id="Path_213348" data-name="Path 213348" d="M15.9,19.408H8.491a1.648,1.648,0,0,1-1.646-1.646V14.469A2.472,2.472,0,0,1,9.314,12h5.762a2.472,2.472,0,0,1,2.469,2.469v3.292A1.648,1.648,0,0,1,15.9,19.408ZM9.314,13.646a.824.824,0,0,0-.823.823v3.292H15.9V14.469a.824.824,0,0,0-.823-.823H9.314Zm13.935,0a.313.313,0,0,1,.268.472L21.93,16.786a.313.313,0,0,1-.537,0l-1.588-2.668a.312.312,0,0,1,.268-.472H23.25Z" transform="translate(-0.242 -0.584)" fill="#212529"/>
    </g>
  </g>
</svg>
