<svg xmlns="http://www.w3.org/2000/svg" width="24" height="24" viewBox="0 0 24 24">
  <g id="Group_84229" data-name="Group 84229" transform="translate(0 -0.196)">
    <rect id="Rectangle_155530" data-name="Rectangle 155530" width="24" height="24" transform="translate(0 0.196)" fill="none"/>
    <g id="sign-out-alt" transform="translate(4 4.195)">
      <path id="Path_573663" data-name="Path 573663" d="M7.589,10a.664.664,0,0,0-.661.667v2a1.992,1.992,0,0,1-1.984,2H3.306a1.992,1.992,0,0,1-1.984-2V3.333a1.992,1.992,0,0,1,1.984-2H4.944a1.992,1.992,0,0,1,1.984,2v2a.661.661,0,1,0,1.323,0v-2A3.324,3.324,0,0,0,4.944,0H3.306A3.324,3.324,0,0,0,0,3.333v9.333A3.324,3.324,0,0,0,3.306,16H4.944A3.324,3.324,0,0,0,8.25,12.667v-2A.664.664,0,0,0,7.589,10Z" fill="#ea4335"/>
      <path id="Path_573664" data-name="Path 573664" d="M16.815,8.271,13.783,5.2a.655.655,0,0,0-.935,0,.677.677,0,0,0,0,.948L15.666,9l-10,.02a.671.671,0,0,0,0,1.341h0l10.044-.021-2.859,2.9a.677.677,0,0,0,0,.948.655.655,0,0,0,.935,0l3.033-3.075a2.031,2.031,0,0,0,0-2.844Z" transform="translate(-1.396 -1.694)" fill="#ea4335"/>
    </g>
  </g>
</svg>
