<svg xmlns="http://www.w3.org/2000/svg" width="24" height="24" viewBox="0 0 24 24">
  <g id="Group_84231" data-name="Group 84231" transform="translate(0 -0.196)">
    <rect id="Rectangle_155530" data-name="Rectangle 155530" width="24" height="24" transform="translate(0 0.196)" fill="none"/>
    <path id="Path_213349" data-name="Path 213349" d="M13,2A11,11,0,1,0,24,13,11.012,11.012,0,0,0,13,2Zm6.691,17.347a7.462,7.462,0,0,0-13.375.007A9.123,9.123,0,0,1,3.76,13a9.24,9.24,0,1,1,18.48,0,9.124,9.124,0,0,1-2.549,6.347ZM13,6.4a3.96,3.96,0,1,0,3.96,3.96A3.96,3.96,0,0,0,13,6.4Z" transform="translate(-1 -0.804)" fill="#212529"/>
  </g>
</svg>
