<svg xmlns="http://www.w3.org/2000/svg" width="24" height="24" viewBox="0 0 24 24">
  <g id="Group_84229" data-name="Group 84229" transform="translate(0 -0.196)">
    <rect id="Rectangle_155530" data-name="Rectangle 155530" width="24" height="24" transform="translate(0 0.196)" fill="none"/>
    <g id="settings" transform="translate(2.797 3.195)">
      <path id="Path_573661" data-name="Path 573661" d="M12,8a4,4,0,1,0,4,4A4,4,0,0,0,12,8Zm0,6a2,2,0,1,1,2-2A2,2,0,0,1,12,14Z" transform="translate(-2.797 -3)" fill="#408dfb"/>
      <path id="Path_573662" data-name="Path 573662" d="M16.089,10.425l-.329-.192a6.907,6.907,0,0,0,0-2.467l.329-.192A2.266,2.266,0,0,0,16.9,4.5a2.209,2.209,0,0,0-3.038-.825l-.33.193a6.632,6.632,0,0,0-2.111-1.232V2.25a2.223,2.223,0,1,0-4.446,0v.385A6.632,6.632,0,0,0,4.87,3.869l-.331-.194A2.209,2.209,0,0,0,1.5,4.5a2.266,2.266,0,0,0,.815,3.075l.329.192a6.907,6.907,0,0,0,0,2.468l-.329.192A2.266,2.266,0,0,0,1.5,13.5a2.209,2.209,0,0,0,3.038.825l.33-.193A6.632,6.632,0,0,0,6.98,15.365v.385a2.223,2.223,0,1,0,4.446,0v-.385a6.633,6.633,0,0,0,2.11-1.235l.331.194A2.209,2.209,0,0,0,16.9,13.5a2.266,2.266,0,0,0-.815-3.075ZM14.2,7.593a5.348,5.348,0,0,1,0,2.812.754.754,0,0,0,.344.85l.8.47a.755.755,0,0,1,.272,1.025.736.736,0,0,1-1.012.275l-.8-.471a.734.734,0,0,0-.9.124,5.161,5.161,0,0,1-2.4,1.406.748.748,0,0,0-.556.727v.94a.741.741,0,1,1-1.482,0v-.939a.748.748,0,0,0-.556-.727,5.161,5.161,0,0,1-2.4-1.409.734.734,0,0,0-.9-.124l-.8.47a.736.736,0,0,1-1.012-.274.755.755,0,0,1,.271-1.025l.8-.469a.754.754,0,0,0,.344-.85,5.348,5.348,0,0,1,0-2.813.754.754,0,0,0-.345-.847l-.8-.469A.755.755,0,0,1,2.786,5.25.736.736,0,0,1,3.8,4.975l.8.471a.734.734,0,0,0,.9-.121,5.161,5.161,0,0,1,2.4-1.406.748.748,0,0,0,.556-.73V2.25a.741.741,0,1,1,1.482,0v.939a.748.748,0,0,0,.556.727,5.161,5.161,0,0,1,2.4,1.409.734.734,0,0,0,.9.124l.8-.47a.736.736,0,0,1,1.012.274.755.755,0,0,1-.271,1.025l-.8.469a.754.754,0,0,0-.343.847Z" fill="#408dfb"/>
    </g>
  </g>
</svg>
