<svg xmlns="http://www.w3.org/2000/svg" xmlns:xlink="http://www.w3.org/1999/xlink" width="24" height="24" viewBox="0 0 24 24">
  <defs>
    <clipPath id="clip-path">
      <rect id="Rectangle_6713" data-name="Rectangle 6713" width="24" height="24" transform="translate(-21474 -9856)" fill="none"/>
    </clipPath>
  </defs>
  <g id="Upload_Raw_Data" data-name="Upload Raw Data" transform="translate(21474 9856)" clip-path="url(#clip-path)">
    <path id="student" d="M15.007,2.976a1.321,1.321,0,0,0-.871-1.263L9.933.2a4.135,4.135,0,0,0-2.8,0L2.882,1.715a1.319,1.319,0,0,0-.875,1.261,1.318,1.318,0,0,0,.876,1.261l1.72.614V5.971A3.951,3.951,0,0,0,8.5,9.962a3.951,3.951,0,0,0,3.9-3.992V4.852l1.3-.464V7.3a.65.65,0,1,0,1.3,0V2.991c0-.006,0-.011,0-.017Zm-3.9,3a2.6,2.6,0,1,1-5.2,0V5.316l1.21.432a4.14,4.14,0,0,0,2.779,0L11.1,5.315V5.97ZM9.464,4.492a2.863,2.863,0,0,1-1.922,0L3.312,2.97,7.566,1.447h0a2.864,2.864,0,0,1,1.935,0l4.2,1.529L9.464,4.491Zm4.211,10.6a.669.669,0,0,1-.428.833.631.631,0,0,1-.193.03.653.653,0,0,1-.621-.468,4.131,4.131,0,0,0-7.86,0,.649.649,0,0,1-.814.438.669.669,0,0,1-.428-.833,5.422,5.422,0,0,1,10.343,0Z" transform="translate(-21470.506 -9851.957)" fill="#fff"/>
  </g>
</svg>
