<svg xmlns="http://www.w3.org/2000/svg" xmlns:xlink="http://www.w3.org/1999/xlink" width="42" height="42" viewBox="0 0 42 42">
  <defs>
    <clipPath id="clip-path">
      <rect id="Rectangle_227" data-name="Rectangle 227" width="42" height="42" transform="translate(1724 29)" fill="none"/>
    </clipPath>
    <clipPath id="clip-path-2">
      <rect id="Rectangle_238680" data-name="Rectangle 238680" width="28" height="30" fill="#212529"/>
    </clipPath>
  </defs>
  <g id="Mask_Group_19" data-name="Mask Group 19" transform="translate(-1724 -29)" clip-path="url(#clip-path)">
    <g id="Group_293403" data-name="Group 293403" transform="translate(1731 34.999)">
      <g id="Group_293402" data-name="Group 293402" clip-path="url(#clip-path-2)">
        <path id="Path_573659" data-name="Path 573659" d="M27.949,19.113a4.264,4.264,0,0,0-.139-.675l-.038-.138-1.646-6.05-.911-3.325A11.425,11.425,0,0,0,16.671.338h-.013a12.252,12.252,0,0,0-1.8-.3C14.57.025,14.291,0,14,0s-.57.025-.861.037a12.252,12.252,0,0,0-1.8.3h-.013A11.425,11.425,0,0,0,2.785,8.925L1.873,12.25.228,18.3l-.038.138A5.309,5.309,0,0,0,0,19.8a5.086,5.086,0,0,0,1.089,3.137,5.3,5.3,0,0,0,.785.813,4.257,4.257,0,0,0,.557.413,3.662,3.662,0,0,0,.481.275,3.524,3.524,0,0,0,.595.25,5.15,5.15,0,0,0,.582.175A5.775,5.775,0,0,0,5.316,25H7.8A6.347,6.347,0,0,0,20.2,25H22.7a5.568,5.568,0,0,0,1.215-.138,5.15,5.15,0,0,0,.582-.175,3.524,3.524,0,0,0,.595-.25,3.662,3.662,0,0,0,.481-.275,4.7,4.7,0,0,0,.57-.413,4.825,4.825,0,0,0,.367-.35,4.179,4.179,0,0,0,.316-.35A5.112,5.112,0,0,0,28,19.8a4.292,4.292,0,0,0-.051-.687M14,27.5A3.808,3.808,0,0,1,10.43,25H17.57A3.808,3.808,0,0,1,14,27.5m10.861-6.025A2.806,2.806,0,0,1,22.684,22.5H5.316A2.758,2.758,0,0,1,3.1,21.425a2.632,2.632,0,0,1-.544-2,.834.834,0,0,1,.025-.175l.051-.175v-.013L5.241,9.525a8.977,8.977,0,0,1,17.519,0l2.608,9.538v.013l.051.175a.834.834,0,0,1,.025.175,2.672,2.672,0,0,1-.582,2.05" fill="#212529"/>
      </g>
    </g>
  </g>
</svg>
